<svg width="172" height="172" viewBox="0 0 172 172" fill="none" xmlns="http://www.w3.org/2000/svg">
<circle cx="86" cy="86" r="86" fill="#CDCFFA" fill-opacity="0.12"/>
<circle cx="86" cy="86" r="49" fill="#030303"/>
<path d="M22.8557 119.998L33.0378 114.365L34.0582 116.209L23.8762 121.842L22.8557 119.998Z" fill="#030303"/>
<path d="M27.8816 100.923L28.3264 103.129L16.1098 101.414L15.5954 98.8628L26.1911 92.5411L26.6359 94.7467L18.1829 99.622L18.2008 99.7111L27.8816 100.923ZM23.3945 101.753L22.1814 95.7378L23.8412 95.403L25.0543 101.418L23.3945 101.753Z" fill="#030303"/>
<path d="M14.4196 88.387L14.5558 85.8111L23.1584 82.8068L23.1656 82.6706L14.928 78.7755L15.0643 76.1995L26.6844 76.8142L26.5776 78.8341L18.5944 78.4118L18.5887 78.5196L26.3679 82.1516L26.2881 83.6608L18.1521 86.4508L18.1464 86.5586L26.1465 86.9818L26.0397 89.0017L14.4196 88.387Z" fill="#030303"/>
<path d="M30.4997 64.7551L29.5674 66.8028L20.6744 58.2529L21.7526 55.8845L34.0428 56.9725L33.1106 59.0203L23.4042 58.0161L23.3665 58.0989L30.4997 64.7551ZM26.3779 62.7974L28.9205 57.2126L30.4615 57.9141L27.9188 63.4989L26.3779 62.7974Z" fill="#030303"/>
<path d="M40.5345 48.2814L32.2162 40.1443L35.3312 36.96C35.9192 36.3589 36.5027 35.952 37.0816 35.7394C37.6605 35.5214 38.209 35.4725 38.7273 35.5927C39.2483 35.7101 39.7145 35.9702 40.1261 36.3728C40.4646 36.7039 40.6907 37.0523 40.8046 37.418C40.9157 37.7811 40.9385 38.1451 40.8729 38.5101C40.8072 38.8752 40.6745 39.2248 40.4746 39.5592L40.5558 39.6386C40.8608 39.3594 41.2283 39.1652 41.6584 39.056C42.0883 38.9414 42.537 38.9432 43.0044 39.0612C43.4718 39.1793 43.9167 39.4449 44.3391 39.8581C44.7696 40.2793 45.0549 40.7623 45.1948 41.3072C45.332 41.8495 45.2942 42.4271 45.0813 43.0402C44.8684 43.6532 44.4507 44.2779 43.8283 44.9143L40.5345 48.2814ZM40.7494 45.5428L42.3347 43.9222C42.8698 43.3752 43.1509 42.8793 43.1782 42.4343C43.2053 41.984 43.0538 41.5973 42.7234 41.2742C42.477 41.0331 42.1954 40.8768 41.8785 40.8053C41.5589 40.7312 41.2324 40.7508 40.8988 40.8643C40.5625 40.9752 40.2421 41.1863 39.9375 41.4977L38.3124 43.1589L40.7494 45.5428ZM37.228 42.0981L38.6861 40.6075C38.9404 40.3475 39.1221 40.0669 39.2313 39.7657C39.3378 39.4619 39.3613 39.1643 39.3019 38.873C39.2423 38.5763 39.0907 38.3088 38.847 38.0704C38.5248 37.7552 38.1482 37.6093 37.7172 37.6328C37.2889 37.6536 36.8575 37.8861 36.4231 38.3301L34.9331 39.8532L37.228 42.0981Z" fill="#030303"/>
<path d="M49.7648 25.8118L51.5375 24.6711L55.6513 31.0642C56.1023 31.765 56.3333 32.4879 56.3443 33.233C56.3585 33.9761 56.1641 34.689 55.7611 35.3718C55.3561 36.0513 54.7554 36.6473 53.9591 37.1597C53.1595 37.6742 52.3666 37.975 51.5803 38.062C50.792 38.1459 50.0626 38.0274 49.3922 37.7066C48.7218 37.3858 48.1611 36.875 47.7102 36.1742L43.5964 29.7811L45.369 28.6405L49.3875 34.8854C49.6499 35.2931 49.9728 35.5989 50.3561 35.8026C50.7427 36.0043 51.1584 36.0904 51.6033 36.0608C52.0462 36.0281 52.4922 35.8672 52.9414 35.5782C53.3905 35.2892 53.7217 34.9499 53.935 34.5604C54.1495 34.1657 54.2434 33.7516 54.2168 33.3183C54.1902 32.885 54.0457 32.4645 53.7834 32.0567L49.7648 25.8118Z" fill="#030303"/>
<path d="M64.7917 22.6948C64.573 22.2462 64.2314 21.959 63.7669 21.833C63.3059 21.7057 62.7816 21.7484 62.1939 21.961C61.7807 22.1105 61.4488 22.3011 61.1983 22.5327C60.9477 22.7643 60.7828 23.0153 60.7034 23.2858C60.624 23.5562 60.6321 23.8292 60.7278 24.1047C60.8103 24.3327 60.9334 24.5117 61.0973 24.6417C61.2647 24.7705 61.4605 24.8608 61.6847 24.9126C61.9076 24.9608 62.1437 24.9842 62.3928 24.9826C62.642 24.9811 62.8885 24.9665 63.1322 24.9387L64.2508 24.824C64.6988 24.7707 65.143 24.757 65.5834 24.783C66.0274 24.8076 66.4459 24.8899 66.8388 25.0296C67.2354 25.1681 67.5865 25.3815 67.8922 25.6697C68.1978 25.9579 68.4364 26.3388 68.6078 26.8126C68.8397 27.4537 68.8802 28.0776 68.729 28.6841C68.5766 29.2871 68.2401 29.8378 67.7196 30.3363C67.2013 30.83 66.504 31.2353 65.6278 31.5524C64.7765 31.8604 63.9897 31.996 63.2675 31.9592C62.5488 31.9212 61.9216 31.713 61.386 31.3348C60.8539 30.9553 60.4422 30.4074 60.1508 29.6911L62.1009 28.9855C62.2673 29.3563 62.4996 29.6308 62.7977 29.809C63.0957 29.9871 63.433 30.0786 63.8093 30.0834C64.1893 30.0869 64.5858 30.014 64.999 29.8645C65.43 29.7085 65.7844 29.5078 66.0621 29.2623C66.3421 29.012 66.5328 28.7375 66.6343 28.439C66.7345 28.1369 66.7296 27.8285 66.6198 27.5137C66.5131 27.2301 66.3443 27.0253 66.1135 26.8993C65.8813 26.7698 65.5949 26.6962 65.2541 26.6785C64.9157 26.656 64.5325 26.6657 64.1046 26.7077L62.7437 26.8376C61.7588 26.9321 60.9195 26.839 60.2258 26.5582C59.5343 26.2727 59.0468 25.7381 58.7633 24.9544C58.5301 24.3097 58.5003 23.682 58.6741 23.0713C58.8515 22.4593 59.1946 21.9102 59.7035 21.424C60.2111 20.9342 60.8478 20.5507 61.6136 20.2737C62.3901 19.9927 63.1194 19.8819 63.8015 19.9413C64.4858 19.9958 65.0818 20.2011 65.5893 20.5573C66.0955 20.9099 66.4654 21.3924 66.6991 22.0047L64.7917 22.6948Z" fill="#030303"/>
<path d="M71.7187 17.5432L74.0816 17.2522L77.536 22.0134L77.6488 21.9995L79.8449 16.5425L82.2077 16.2515L78.8981 24.0096L79.4286 28.318L77.3421 28.575L76.8116 24.2666L71.7187 17.5432Z" fill="#030303"/>
<path d="M106.147 23.5109L104.079 23.0234C104.1 22.6703 104.062 22.3442 103.965 22.0451C103.869 21.7423 103.725 21.4709 103.532 21.2309C103.34 20.991 103.103 20.7893 102.823 20.6259C102.547 20.4597 102.235 20.3357 101.889 20.254C101.273 20.1089 100.691 20.1352 100.142 20.3328C99.5947 20.5267 99.1163 20.8888 98.7073 21.419C98.2991 21.9454 97.9947 22.6345 97.794 23.4862C97.5898 24.3526 97.5523 25.1143 97.6816 25.7713C97.8154 26.4255 98.0827 26.9594 98.4833 27.3729C98.8886 27.7836 99.3972 28.0611 100.009 28.2053C100.348 28.2853 100.676 28.3158 100.992 28.2968C101.312 28.275 101.611 28.2034 101.889 28.082C102.17 27.9615 102.422 27.7914 102.645 27.5715C102.872 27.3525 103.056 27.0845 103.197 26.7675L105.262 27.266C105.058 27.786 104.771 28.2516 104.402 28.6627C104.037 29.0746 103.605 29.4126 103.107 29.6766C102.609 29.9369 102.06 30.1033 101.46 30.1758C100.86 30.2445 100.222 30.1994 99.5476 30.0404C98.5521 29.8058 97.7179 29.366 97.0449 28.721C96.3718 28.0759 95.913 27.2653 95.6682 26.2892C95.4235 25.3131 95.4444 24.2167 95.7312 23.0001C96.0187 21.7797 96.4914 20.7897 97.149 20.0302C97.8076 19.267 98.582 18.747 99.4722 18.4703C100.362 18.1937 101.302 18.1718 102.29 18.4046C102.92 18.5532 103.485 18.7798 103.986 19.0845C104.486 19.3892 104.908 19.7629 105.251 20.2057C105.595 20.6449 105.845 21.1436 106.002 21.7019C106.163 22.2574 106.211 22.8604 106.147 23.5109Z" fill="#030303"/>
<path d="M119.661 31.9733C119.094 33.0913 118.398 33.9426 117.575 34.5272C116.757 35.1101 115.881 35.43 114.947 35.4871C114.016 35.5459 113.097 35.3446 112.188 34.8835C111.28 34.4223 110.573 33.798 110.068 33.0107C109.568 32.2216 109.31 31.3239 109.294 30.3176C109.283 29.3096 109.56 28.2482 110.126 27.1336C110.693 26.0156 111.386 25.1651 112.205 24.5822C113.028 23.9977 113.905 23.676 114.835 23.6173C115.769 23.5602 116.69 23.7623 117.599 24.2234C118.508 24.6846 119.213 25.308 119.715 26.0937C120.22 26.8811 120.478 27.7788 120.489 28.7868C120.505 29.7931 120.229 30.8553 119.661 31.9733ZM117.771 31.0141C118.171 30.2271 118.385 29.5008 118.412 28.8352C118.445 28.168 118.316 27.5862 118.024 27.0897C117.734 26.59 117.307 26.1969 116.743 25.9106C116.179 25.6243 115.609 25.5116 115.035 25.5725C114.462 25.63 113.914 25.8681 113.391 26.2868C112.874 26.7038 112.415 27.3058 112.016 28.0928C111.616 28.8798 111.4 29.6069 111.367 30.2742C111.34 30.9398 111.471 31.5224 111.761 32.0222C112.053 32.5187 112.481 32.91 113.045 33.1963C113.609 33.4826 114.177 33.597 114.75 33.5395C115.325 33.4786 115.871 33.2396 116.388 32.8226C116.911 32.404 117.372 31.8011 117.771 31.0141Z" fill="#030303"/>
<path d="M123.278 42.1931L120.282 39.629L127.849 30.7887L130.905 33.4045C131.783 34.1557 132.385 34.978 132.712 35.8714C133.045 36.7643 133.099 37.6856 132.875 38.6353C132.65 39.5849 132.145 40.5187 131.359 41.4367C130.571 42.3576 129.723 43.0024 128.814 43.3712C127.908 43.7424 126.982 43.8304 126.037 43.6351C125.096 43.4422 124.176 42.9615 123.278 42.1931ZM123.07 39.6141L124.386 40.7409C125.002 41.268 125.612 41.5955 126.215 41.7232C126.822 41.8481 127.42 41.7748 128.012 41.5032C128.606 41.2287 129.192 40.7534 129.771 40.0771C130.35 39.4008 130.726 38.751 130.901 38.1276C131.078 37.5014 131.058 36.9038 130.842 36.3349C130.632 35.7656 130.227 35.2248 129.628 34.7125L128.264 33.545L123.07 39.6141Z" fill="#030303"/>
<path d="M130.173 49.0401L139.471 42.0438L144.021 48.0913L142.609 49.1537L139.326 44.7907L136.802 46.69L139.849 50.7399L138.437 51.8023L135.39 47.7525L132.852 49.6621L136.162 54.0615L134.75 55.1239L130.173 49.0401Z" fill="#030303"/>
<path d="M136.919 58.9456L147.477 54.052L149.312 58.0111C149.688 58.8221 149.862 59.5679 149.835 60.2484C149.81 60.9323 149.608 61.533 149.23 62.0506C148.857 62.57 148.334 62.9858 147.66 63.298C146.983 63.6118 146.329 63.7399 145.697 63.6822C145.07 63.6263 144.491 63.3829 143.962 62.9521C143.436 62.5196 142.984 61.8978 142.609 61.0867L141.302 58.267L142.889 57.531L144.077 60.0931C144.297 60.5673 144.542 60.9254 144.813 61.1673C145.087 61.4076 145.385 61.541 145.706 61.5674C146.032 61.5957 146.383 61.5231 146.757 61.3494C147.132 61.1758 147.417 60.9538 147.613 60.6833C147.813 60.4113 147.911 60.0922 147.908 59.7261C147.909 59.3583 147.799 58.9356 147.577 58.4579L146.765 56.7052L137.806 60.8581L136.919 58.9456ZM144.231 62.1821L140.659 67.0131L139.669 64.8789L143.263 60.0944L144.231 62.1821Z" fill="#030303"/>
<path d="M155.715 86.3534L144.122 87.3632L143.96 85.4953L151.38 79.3452L151.372 79.249L143.476 79.9368L143.293 77.8368L154.885 76.827L155.049 78.7063L147.622 84.8512L147.631 84.953L155.533 84.2648L155.715 86.3534Z" fill="#030303"/>
<path d="M148.03 102.574C146.791 102.385 145.764 101.991 144.951 101.392C144.142 100.797 143.564 100.065 143.217 99.1959C142.87 98.3307 142.774 97.3944 142.927 96.3871C143.081 95.3798 143.453 94.5131 144.042 93.7869C144.635 93.065 145.407 92.539 146.358 92.2089C147.312 91.8831 148.407 91.8144 149.642 92.0029C150.882 92.1919 151.906 92.5839 152.716 93.1787C153.529 93.7778 154.109 94.51 154.456 95.3752C154.802 96.2442 154.899 97.1823 154.745 98.1896C154.591 99.1969 154.22 100.062 153.631 100.784C153.041 101.51 152.269 102.036 151.315 102.362C150.365 102.692 149.269 102.763 148.03 102.574ZM148.35 100.479C149.222 100.612 149.979 100.587 150.62 100.405C151.264 100.228 151.776 99.9227 152.156 99.4902C152.54 99.0583 152.779 98.5297 152.875 97.9043C152.97 97.279 152.899 96.703 152.661 96.1763C152.427 95.6501 152.03 95.2044 151.468 94.8391C150.91 94.4781 150.195 94.2311 149.323 94.098C148.45 93.9649 147.692 93.9872 147.048 94.1649C146.407 94.3468 145.895 94.6538 145.511 95.0857C145.131 95.5181 144.893 96.047 144.798 96.6724C144.702 97.2977 144.772 97.8735 145.005 98.3996C145.243 98.9263 145.641 99.3702 146.199 99.7312C146.76 100.096 147.477 100.346 148.35 100.479Z" fill="#030303"/>
<path d="M140.153 107.745L152.111 109.534L151.179 111.601L142.522 109.997L142.478 110.095L149.352 115.651L148.505 117.531L139.782 116.06L139.74 116.153L146.678 121.582L145.746 123.649L136.489 115.871L137.343 113.976L145.744 115.208L145.781 115.125L139.298 109.64L140.153 107.745Z" fill="#030303"/>
<path d="M87.5938 83.875C88.8281 83.875 89.8867 83.9258 90.7695 84.0273C91.6523 84.1289 92.3945 84.2812 92.9961 84.4844C93.6055 84.6797 94.0898 84.9258 94.4492 85.2227C94.8086 85.5195 95.0859 85.8594 95.2812 86.2422C95.4766 86.6172 95.6016 87.0391 95.6562 87.5078C95.7188 87.9766 95.75 88.4844 95.75 89.0312C95.75 89.5781 95.6992 90.0938 95.5977 90.5781C95.5039 91.0547 95.332 91.4922 95.082 91.8906C94.832 92.2891 94.4922 92.6445 94.0625 92.957C93.6328 93.2695 93.0859 93.5352 92.4219 93.7539C91.7578 93.9727 90.957 94.1367 90.0195 94.2461C89.0898 94.3633 88 94.4219 86.75 94.4219H83.75C82.625 94.4219 81.6406 94.3789 80.7969 94.293C79.9531 94.207 79.2266 94.0781 78.6172 93.9062C78.0078 93.7266 77.5039 93.5039 77.1055 93.2383C76.707 92.9648 76.3867 92.6484 76.1445 92.2891C75.9102 91.9219 75.7461 91.5078 75.6523 91.0469C75.5586 90.5781 75.5117 90.0625 75.5117 89.5H77.7617C77.7617 90.2031 77.8633 90.7539 78.0664 91.1523C78.2695 91.5508 78.6055 91.8516 79.0742 92.0547C79.543 92.25 80.1562 92.375 80.9141 92.4297C81.6797 92.4766 82.625 92.5 83.75 92.5H86.75C88.0625 92.5 89.1523 92.4375 90.0195 92.3125C90.8867 92.1875 91.5781 91.9883 92.0938 91.7148C92.6094 91.4414 92.9727 91.0859 93.1836 90.6484C93.3945 90.2031 93.5 89.6641 93.5 89.0312C93.5 88.3984 93.4258 87.8711 93.2773 87.4492C93.1367 87.0273 92.8516 86.6914 92.4219 86.4414C92 86.1914 91.4023 86.0156 90.6289 85.9141C89.8555 85.8047 88.8438 85.75 87.5938 85.75H84.5C83.125 85.75 81.9453 85.6992 80.9609 85.5977C79.9844 85.4961 79.1641 85.3516 78.5 85.1641C77.8359 84.9688 77.3047 84.7305 76.9062 84.4492C76.5078 84.1602 76.2031 83.832 75.9922 83.4648C75.7891 83.0977 75.6562 82.6914 75.5938 82.2461C75.5312 81.793 75.5 81.3047 75.5 80.7812C75.5 80.2344 75.5469 79.7266 75.6406 79.2578C75.7422 78.7891 75.9258 78.3672 76.1914 77.9922C76.457 77.6094 76.8203 77.2695 77.2812 76.9727C77.7422 76.6758 78.332 76.4297 79.0508 76.2344C79.7773 76.0312 80.6484 75.8789 81.6641 75.7773C82.6797 75.6758 83.875 75.625 85.25 75.625H87.5C88.625 75.625 89.6094 75.668 90.4531 75.7539C91.2969 75.832 92.0234 75.9609 92.6328 76.1406C93.2422 76.3125 93.7461 76.5312 94.1445 76.7969C94.5508 77.0547 94.8711 77.3672 95.1055 77.7344C95.3477 78.0938 95.5156 78.5039 95.6094 78.9648C95.7031 79.4258 95.75 79.9375 95.75 80.5H93.5C93.5 79.7969 93.3984 79.2461 93.1953 78.8477C92.9922 78.4492 92.6562 78.1523 92.1875 77.957C91.7188 77.7539 91.1016 77.6289 90.3359 77.582C89.5703 77.5273 88.625 77.5 87.5 77.5H85.25C83.75 77.5 82.5156 77.5547 81.5469 77.6641C80.5781 77.7656 79.8125 77.9414 79.25 78.1914C78.6875 78.4414 78.2969 78.7773 78.0781 79.1992C77.8594 79.6211 77.75 80.1484 77.75 80.7812C77.75 81.1719 77.7773 81.5195 77.832 81.8242C77.8867 82.1289 77.9961 82.3984 78.1602 82.6328C78.332 82.8594 78.5703 83.0508 78.875 83.207C79.1797 83.3633 79.582 83.4922 80.082 83.5938C80.582 83.6953 81.1914 83.7695 81.9102 83.8164C82.6367 83.8555 83.5 83.875 84.5 83.875H87.5938Z" fill="#ECECEC"/>
</svg>
